<svg width="124" height="124" viewBox="0 0 124 124" fill="none" xmlns="http://www.w3.org/2000/svg">
<path d="M61.9345 124C96.14 124 123.869 96.2417 123.869 62C123.869 27.7583 96.14 0 61.9345 0C27.729 0 0 27.7583 0 62C0 96.2417 27.729 124 61.9345 124Z" fill="black"/>
<path d="M61.9345 21.9349C84.0453 21.9349 102.034 39.9291 102.034 62.0466C102.034 84.1642 84.0453 102.158 61.9345 102.158C39.8236 102.158 21.835 84.1642 21.835 62.0466C21.835 39.9291 39.8236 21.9349 61.9345 21.9349ZM61.9345 13.9126C35.3605 13.9126 13.8151 35.4646 13.8151 62.0466C13.8151 88.6287 35.3605 110.181 61.9345 110.181C88.5084 110.181 110.054 88.6287 110.054 62.0466C110.054 35.4646 88.5084 13.9126 61.9345 13.9126ZM84.0173 69.8324C77.9541 74.6257 71.2895 77.5778 61.9384 77.5778C52.5793 77.5778 45.9147 74.6257 39.8516 69.8324L37.8748 71.8099C42.3939 78.7089 50.7065 86.1136 61.9384 86.1136C73.1664 86.1136 81.4749 78.7089 85.9942 71.8099L84.0173 69.8324ZM47.8997 46.0019C44.5794 46.0019 41.8848 48.6934 41.8848 52.0186C41.8848 55.3439 44.5794 58.0354 47.8997 58.0354C51.2198 58.0354 53.9146 55.3439 53.9146 52.0186C53.9146 48.6934 51.2198 46.0019 47.8997 46.0019ZM75.9693 46.0019C72.649 46.0019 69.9544 48.6934 69.9544 52.0186C69.9544 55.3439 72.649 58.0354 75.9693 58.0354C79.2895 58.0354 81.9843 55.3439 81.9843 52.0186C81.9843 48.6934 79.2895 46.0019 75.9693 46.0019Z" fill="#F1F1F1"/>
</svg>
